<svg width="25" height="24" viewBox="0 0 25 24" fill="none" xmlns="http://www.w3.org/2000/svg">
<path fill-rule="evenodd" clip-rule="evenodd" d="M12.5 22C6.97784 22 2.5 17.5233 2.5 12C2.5 6.47779 6.97779 2 12.5 2C18.0222 2 22.5 6.47779 22.5 12C22.5 17.5233 18.0222 22 12.5 22ZM4 12C4 16.6947 7.80616 20.5 12.5 20.5C17.1938 20.5 21 16.6947 21 12C21 7.30621 17.1938 3.5 12.5 3.5C7.80621 3.5 4 7.30621 4 12Z" fill="black"/>
<path fill-rule="evenodd" clip-rule="evenodd" d="M9.99695 15.4688L13.4807 12.0001L9.99695 8.53137L11.0553 7.46842L15.6066 12.0001L11.0553 16.5317L9.99695 15.4688Z" fill="black"/>
</svg>
