<svg width="23" height="23" viewBox="0 0 23 23" fill="none" xmlns="http://www.w3.org/2000/svg">
<path fill-rule="evenodd" clip-rule="evenodd" d="M19.651 11.8772L3.57216 11.8772L3.57216 10.499L19.651 10.499L19.651 11.8772Z" fill="black"/>
<path fill-rule="evenodd" clip-rule="evenodd" d="M18.9622 10.499C15.7211 10.499 13.0726 13.3493 13.0726 16.3886L13.0726 17.0777L14.4508 17.0777L14.4508 16.3886C14.4508 14.0809 16.5114 11.8772 18.9622 11.8772L19.6513 11.8772L19.6513 10.499L18.9622 10.499Z" fill="black"/>
<path fill-rule="evenodd" clip-rule="evenodd" d="M18.9622 11.8772C15.7211 11.8772 13.0726 9.02694 13.0726 5.98762L13.0726 5.29852L14.4508 5.29852L14.4508 5.98762C14.4508 8.29527 16.5114 10.499 18.9622 10.499L19.6513 10.499L19.6513 11.8772L18.9622 11.8772Z" fill="black"/>
</svg>
