<svg width="25" height="24" viewBox="0 0 25 24" fill="none" xmlns="http://www.w3.org/2000/svg">
<path fill-rule="evenodd" clip-rule="evenodd" d="M15.9562 9.59484L10.1035 15.4475L9.04285 14.3868L14.8955 8.53418L15.9562 9.59484Z" fill="#FF0000"/>
<path fill-rule="evenodd" clip-rule="evenodd" d="M10.0997 8.53223L15.9563 14.39L14.8955 15.4505L9.03894 9.59278L10.0997 8.53223Z" fill="#FF0000"/>
<path fill-rule="evenodd" clip-rule="evenodd" d="M2.5 12C2.5 6.47715 6.97715 2 12.5 2C18.0228 2 22.5 6.47715 22.5 12C22.5 17.5228 18.0228 22 12.5 22C6.97715 22 2.5 17.5228 2.5 12ZM12.5 3.5C7.80558 3.5 4 7.30558 4 12C4 16.6944 7.80558 20.5 12.5 20.5C17.1944 20.5 21 16.6944 21 12C21 7.30558 17.1944 3.5 12.5 3.5Z" fill="#FF0000"/>
</svg>
