<svg width="1440" height="2793" viewBox="0 0 1440 2793" fill="none" xmlns="http://www.w3.org/2000/svg">
<g opacity="0.09">
<line y1="-1.14808" x2="2753.1" y2="-1.14808" transform="matrix(1 0 0 -1 -897 1231.61)" stroke="#EC008C" stroke-width="2.29617"/>
<line y1="-1.14808" x2="2753.1" y2="-1.14808" transform="matrix(1 0 0 -1 -897 643.785)" stroke="#EC008C" stroke-width="2.29617"/>
<line y1="-1.14808" x2="2753.1" y2="-1.14808" transform="matrix(1 0 0 -1 -897 1819.42)" stroke="#EC008C" stroke-width="2.29617"/>
<line y1="-1.14808" x2="2753.1" y2="-1.14808" transform="matrix(1 0 0 -1 -897 2407.24)" stroke="#EC008C" stroke-width="2.29617"/>
<line y1="-1.14808" x2="2753.1" y2="-1.14808" transform="matrix(1 0 0 -1 -897 349.88)" stroke="#EC008C" stroke-width="2.29617"/>
<line y1="-1.14808" x2="2753.1" y2="-1.14808" transform="matrix(1 0 0 -1 -897 1525.52)" stroke="#EC008C" stroke-width="2.29617"/>
<line y1="-1.14808" x2="2753.1" y2="-1.14808" transform="matrix(1 0 0 -1 -897 937.705)" stroke="#EC008C" stroke-width="2.29617"/>
<line y1="-1.14808" x2="2753.1" y2="-1.14808" transform="matrix(1 0 0 -1 -897 2113.34)" stroke="#EC008C" stroke-width="2.29617"/>
<line y1="-1.14808" x2="2753.1" y2="-1.14808" transform="matrix(1 0 0 -1 -897 1378.57)" stroke="#EC008C" stroke-width="2.29617"/>
<line y1="-1.14808" x2="2753.1" y2="-1.14808" transform="matrix(1 0 0 -1 -897 790.745)" stroke="#EC008C" stroke-width="2.29617"/>
<line y1="-1.14808" x2="2753.1" y2="-1.14808" transform="matrix(1 0 0 -1 -897 1966.38)" stroke="#EC008C" stroke-width="2.29617"/>
<line y1="-1.14808" x2="2753.1" y2="-1.14808" transform="matrix(1 0 0 -1 -897 496.84)" stroke="#EC008C" stroke-width="2.29617"/>
<line y1="-1.14808" x2="2753.1" y2="-1.14808" transform="matrix(1 0 0 -1 -897 1672.47)" stroke="#EC008C" stroke-width="2.29617"/>
<line y1="-1.14808" x2="2753.1" y2="-1.14808" transform="matrix(1 0 0 -1 -897 1084.65)" stroke="#EC008C" stroke-width="2.29617"/>
<line y1="-1.14808" x2="2753.1" y2="-1.14808" transform="matrix(1 0 0 -1 -897 2260.29)" stroke="#EC008C" stroke-width="2.29617"/>
<line y1="-1.14808" x2="2126.25" y2="-1.14808" transform="matrix(-4.37114e-08 -1 -1 4.37114e-08 363.612 2460.05)" stroke="#EC008C" stroke-width="2.29617"/>
<line y1="-1.14808" x2="2126.25" y2="-1.14808" transform="matrix(-4.37114e-08 -1 -1 4.37114e-08 951.422 2460.05)" stroke="#EC008C" stroke-width="2.29617"/>
<line y1="-1.14808" x2="2126.25" y2="-1.14808" transform="matrix(-4.37114e-08 -1 -1 4.37114e-08 657.503 2460.05)" stroke="#EC008C" stroke-width="2.29617"/>
<line y1="-1.14808" x2="2126.25" y2="-1.14808" transform="matrix(-4.37114e-08 -1 -1 4.37114e-08 69.6926 2460.05)" stroke="#EC008C" stroke-width="2.29617"/>
<line y1="-1.14808" x2="2126.25" y2="-1.14808" transform="matrix(-4.37114e-08 -1 -1 4.37114e-08 1245.33 2460.05)" stroke="#EC008C" stroke-width="2.29617"/>
<line y1="-1.14808" x2="2126.25" y2="-1.14808" transform="matrix(-4.37114e-08 -1 -1 4.37114e-08 510.557 2460.05)" stroke="#EC008C" stroke-width="2.29617"/>
<line y1="-1.14808" x2="2126.25" y2="-1.14808" transform="matrix(-4.37114e-08 -1 -1 4.37114e-08 1098.38 2460.05)" stroke="#EC008C" stroke-width="2.29617"/>
<line y1="-1.14808" x2="2126.25" y2="-1.14808" transform="matrix(-4.37114e-08 -1 -1 4.37114e-08 804.463 2460.05)" stroke="#EC008C" stroke-width="2.29617"/>
<line y1="-1.14808" x2="2126.25" y2="-1.14808" transform="matrix(-4.37114e-08 -1 -1 4.37114e-08 216.652 2460.05)" stroke="#EC008C" stroke-width="2.29617"/>
<line y1="-1.14808" x2="2126.25" y2="-1.14808" transform="matrix(-4.37114e-08 -1 -1 4.37114e-08 1392.29 2460.05)" stroke="#EC008C" stroke-width="2.29617"/>
</g>
<g opacity="0.5">
<rect width="146.12" height="146.12" transform="matrix(1 0 0 -1 659 939.12)" fill="#EC008C" fill-opacity="0.5"/>
<rect width="146.12" height="146.12" transform="matrix(1 0 0 -1 -76.0148 938.943)" fill="#28156E" fill-opacity="0.75"/>
<rect width="146.12" height="144.032" transform="matrix(1 0 0 -1 1099.21 1819.83)" fill="#48319E" fill-opacity="0.3"/>
<rect width="146.12" height="144.032" transform="matrix(1 0 0 -1 1099.21 1965.95)" fill="#48319E" fill-opacity="0.3"/>
<rect width="146.12" height="144.032" transform="matrix(1 0 0 -1 -76.2708 1525.6)" fill="#9C9FE3"/>
<rect width="146.12" height="146.12" transform="matrix(1 0 0 -1 953.087 2260.29)" fill="#9C9FE3"/>
<rect width="146.12" height="144.808" transform="matrix(1 0 0 -1 805.373 2407.25)" fill="#9C9FE3"/>
<rect width="146.12" height="145.759" transform="matrix(1 0 0 -1 805.373 2261.07)" fill="#9C9FE3"/>
<rect width="146.12" height="146.12" transform="matrix(1 0 0 -1 1393.53 938.943)" fill="#9C9FE3"/>
</g>
</svg>
