<svg width="1440" height="1265" viewBox="0 0 1440 1265" fill="none" xmlns="http://www.w3.org/2000/svg">
<g opacity="0.09">
<line y1="-1.14808" x2="2753.1" y2="-1.14808" transform="matrix(1 0 0 -1 -897 412.61)" stroke="#EC008C" stroke-width="2.29617"/>
<line y1="-1.14808" x2="2753.1" y2="-1.14808" transform="matrix(1 0 0 -1 -897 1000.42)" stroke="#EC008C" stroke-width="2.29617"/>
<line y1="-1.14808" x2="2753.1" y2="-1.14808" transform="matrix(1 0 0 -1 -897 706.515)" stroke="#EC008C" stroke-width="2.29617"/>
<line y1="-1.14808" x2="2753.1" y2="-1.14808" transform="matrix(1 0 0 -1 -897 118.704)" stroke="#EC008C" stroke-width="2.29617"/>
<line y1="-1.14808" x2="2753.1" y2="-1.14808" transform="matrix(1 0 0 -1 -897 559.569)" stroke="#EC008C" stroke-width="2.29617"/>
<line y1="-1.14808" x2="2753.1" y2="-1.14808" transform="matrix(1 0 0 -1 -897 1147.38)" stroke="#EC008C" stroke-width="2.29617"/>
<line y1="-1.14808" x2="2753.1" y2="-1.14808" transform="matrix(1 0 0 -1 -897 853.475)" stroke="#EC008C" stroke-width="2.29617"/>
<line y1="-1.14808" x2="2753.1" y2="-1.14808" transform="matrix(1 0 0 -1 -897 265.65)" stroke="#EC008C" stroke-width="2.29617"/>
<line y1="-1.14808" x2="2126.25" y2="-1.14808" transform="matrix(-4.37114e-08 -1 -1 4.37114e-08 363.612 1641.05)" stroke="#EC008C" stroke-width="2.29617"/>
<line y1="-1.14808" x2="2126.25" y2="-1.14808" transform="matrix(-4.37114e-08 -1 -1 4.37114e-08 951.422 1641.05)" stroke="#EC008C" stroke-width="2.29617"/>
<line y1="-1.14808" x2="2126.25" y2="-1.14808" transform="matrix(-4.37114e-08 -1 -1 4.37114e-08 657.503 1641.05)" stroke="#EC008C" stroke-width="2.29617"/>
<line y1="-1.14808" x2="2126.25" y2="-1.14808" transform="matrix(-4.37114e-08 -1 -1 4.37114e-08 69.6926 1641.05)" stroke="#EC008C" stroke-width="2.29617"/>
<line y1="-1.14808" x2="2126.25" y2="-1.14808" transform="matrix(-4.37114e-08 -1 -1 4.37114e-08 1245.33 1641.05)" stroke="#EC008C" stroke-width="2.29617"/>
<line y1="-1.14808" x2="2126.25" y2="-1.14808" transform="matrix(-4.37114e-08 -1 -1 4.37114e-08 510.557 1641.05)" stroke="#EC008C" stroke-width="2.29617"/>
<line y1="-1.14808" x2="2126.25" y2="-1.14808" transform="matrix(-4.37114e-08 -1 -1 4.37114e-08 1098.38 1641.05)" stroke="#EC008C" stroke-width="2.29617"/>
<line y1="-1.14808" x2="2126.25" y2="-1.14808" transform="matrix(-4.37114e-08 -1 -1 4.37114e-08 804.463 1641.05)" stroke="#EC008C" stroke-width="2.29617"/>
<line y1="-1.14808" x2="2126.25" y2="-1.14808" transform="matrix(-4.37114e-08 -1 -1 4.37114e-08 216.652 1641.05)" stroke="#EC008C" stroke-width="2.29617"/>
<line y1="-1.14808" x2="2126.25" y2="-1.14808" transform="matrix(-4.37114e-08 -1 -1 4.37114e-08 1392.29 1641.05)" stroke="#EC008C" stroke-width="2.29617"/>
</g>
<g opacity="0.5">
<rect width="146.12" height="146.12" transform="matrix(1 0 0 -1 658.755 119.943)" fill="#D9AB52" fill-opacity="0.5"/>
<rect width="146.12" height="146.12" transform="matrix(1 0 0 -1 -76.0148 119.943)" fill="#28156E" fill-opacity="0.75"/>
<rect width="146.12" height="144.032" transform="matrix(1 0 0 -1 1099.21 1000.83)" fill="#48319E" fill-opacity="0.3"/>
<rect width="146.12" height="144.032" transform="matrix(1 0 0 -1 1099.21 1146.95)" fill="#48319E" fill-opacity="0.3"/>
<rect width="146.12" height="144.032" transform="matrix(1 0 0 -1 -76.2708 706.601)" fill="#9C9FE3"/>
<rect width="146.12" height="146.12" transform="matrix(1 0 0 -1 1393.53 119.942)" fill="#9C9FE3"/>
</g>
</svg>
