<svg width="1440" height="637" viewBox="0 0 1440 637" fill="none" xmlns="http://www.w3.org/2000/svg">
<path d="M402.243 1L-698.5 636.514" stroke="#EC008C" stroke-width="1.58879"/>
<path d="M418.538 1L-557.197 636.514" stroke="#EC008C" stroke-width="1.58879"/>
<path d="M434.833 1L-434.956 636.514" stroke="#EC008C" stroke-width="1.58879"/>
<path d="M451.129 1L-327.235 636.514" stroke="#EC008C" stroke-width="1.58879"/>
<path d="M467.424 1L-230.809 636.514" stroke="#EC008C" stroke-width="1.58879"/>
<path d="M483.719 1L-143.32 636.514" stroke="#EC008C" stroke-width="1.58879"/>
<path d="M500.014 1L-63.0021 636.514" stroke="#EC008C" stroke-width="1.58879"/>
<path d="M516.31 1L11.495 636.514" stroke="#EC008C" stroke-width="1.58879"/>
<path d="M532.605 1L81.2252 636.514" stroke="#EC008C" stroke-width="1.58879"/>
<path d="M548.9 1L147.025 636.514" stroke="#EC008C" stroke-width="1.58879"/>
<path d="M565.195 1L209.57 636.514" stroke="#EC008C" stroke-width="1.58879"/>
<path d="M581.491 1L269.415 636.514" stroke="#EC008C" stroke-width="1.58879"/>
<path d="M597.786 1L327.018 636.514" stroke="#EC008C" stroke-width="1.58879"/>
<path d="M614.081 1L382.773 636.514" stroke="#EC008C" stroke-width="1.58879"/>
<path d="M630.376 1L437.013 636.514" stroke="#EC008C" stroke-width="1.58879"/>
<path d="M646.672 1L490.031 636.514" stroke="#EC008C" stroke-width="1.58879"/>
<path d="M662.967 1L542.09 636.514" stroke="#EC008C" stroke-width="1.58879"/>
<path d="M679.262 1L593.424 636.514" stroke="#EC008C" stroke-width="1.58879"/>
<path d="M695.557 1L644.253 636.514" stroke="#EC008C" stroke-width="1.58879"/>
<path d="M711.853 1L694.784 636.514" stroke="#EC008C" stroke-width="1.58879"/>
<path d="M728.148 1L745.216 636.514" stroke="#EC008C" stroke-width="1.58879"/>
<path d="M744.443 1L795.747 636.514" stroke="#EC008C" stroke-width="1.58879"/>
<path d="M760.738 1L846.576 636.514" stroke="#EC008C" stroke-width="1.58879"/>
<path d="M777.033 1L897.911 636.514" stroke="#EC008C" stroke-width="1.58879"/>
<path d="M793.329 1L949.969 636.514" stroke="#EC008C" stroke-width="1.58879"/>
<path d="M809.624 1L1002.99 636.514" stroke="#EC008C" stroke-width="1.58879"/>
<path d="M825.919 1L1057.23 636.514" stroke="#EC008C" stroke-width="1.58879"/>
<path d="M842.214 1L1112.98 636.514" stroke="#EC008C" stroke-width="1.58879"/>
<path d="M858.51 1L1170.59 636.514" stroke="#EC008C" stroke-width="1.58879"/>
<path d="M874.805 1L1230.43 636.514" stroke="#EC008C" stroke-width="1.58879"/>
<path d="M891.1 1L1292.98 636.514" stroke="#EC008C" stroke-width="1.58879"/>
<path d="M907.395 1L1358.78 636.514" stroke="#EC008C" stroke-width="1.58879"/>
<path d="M923.691 1L1428.51 636.514" stroke="#EC008C" stroke-width="1.58879"/>
<path d="M939.986 1L1503 636.514" stroke="#EC008C" stroke-width="1.58879"/>
<path d="M956.281 1L1583.32 636.514" stroke="#EC008C" stroke-width="1.58879"/>
<path d="M972.576 1L1670.81 636.514" stroke="#EC008C" stroke-width="1.58879"/>
<path d="M988.872 1L1767.24 636.514" stroke="#EC008C" stroke-width="1.58879"/>
<path d="M1005.17 1L1874.96 636.514" stroke="#EC008C" stroke-width="1.58879"/>
<path d="M1021.46 1L1997.2 636.514" stroke="#EC008C" stroke-width="1.58879"/>
<path d="M1037.76 1L2138.5 636.514" stroke="#EC008C" stroke-width="1.58879"/>
<path d="M402.243 1H1037.76" stroke="#EC008C" stroke-width="1.58879"/>
<path d="M402.243 1H1037.76" stroke="#EC008C" stroke-width="1.58879"/>
<path d="M402.243 1H1037.76" stroke="#EC008C" stroke-width="1.58879"/>
<path d="M402.243 1H1037.76" stroke="#EC008C" stroke-width="1.58879"/>
<path d="M402.243 1H1037.76" stroke="#EC008C" stroke-width="1.58879"/>
<path d="M402.242 1H1037.76" stroke="#EC008C" stroke-width="1.58879"/>
<path d="M402.241 1.00146H1037.76" stroke="#EC008C" stroke-width="1.58879"/>
<path d="M402.236 1.00391H1037.76" stroke="#EC008C" stroke-width="1.58879"/>
<path d="M402.226 1.00928H1037.77" stroke="#EC008C" stroke-width="1.58879"/>
<path d="M402.205 1.02148H1037.8" stroke="#EC008C" stroke-width="1.58879"/>
<path d="M402.163 1.04639H1037.84" stroke="#EC008C" stroke-width="1.58879"/>
<path d="M402.087 1.08984H1037.91" stroke="#EC008C" stroke-width="1.58879"/>
<path d="M401.956 1.16602H1038.04" stroke="#EC008C" stroke-width="1.58879"/>
<path d="M401.74 1.29004H1038.26" stroke="#EC008C" stroke-width="1.58879"/>
<path d="M401.397 1.48779H1038.6" stroke="#EC008C" stroke-width="1.58879"/>
<path d="M400.873 1.7915H1039.13" stroke="#EC008C" stroke-width="1.58879"/>
<path d="M400.09 2.24268H1039.91" stroke="#EC008C" stroke-width="1.58879"/>
<path d="M398.952 2.90088H1041.05" stroke="#EC008C" stroke-width="1.58879"/>
<path d="M397.332 3.83545H1042.67" stroke="#EC008C" stroke-width="1.58879"/>
<path d="M395.073 5.13965H1044.93" stroke="#EC008C" stroke-width="1.58879"/>
<path d="M391.976 6.92773H1048.02" stroke="#EC008C" stroke-width="1.58879"/>
<path d="M387.796 9.34131H1052.2" stroke="#EC008C" stroke-width="1.58879"/>
<path d="M382.236 12.5513H1057.76" stroke="#EC008C" stroke-width="1.58879"/>
<path d="M374.933 16.7676H1065.07" stroke="#EC008C" stroke-width="1.58879"/>
<path d="M365.454 22.2397H1074.55" stroke="#EC008C" stroke-width="1.58879"/>
<path d="M353.286 29.2651H1086.71" stroke="#EC008C" stroke-width="1.58879"/>
<path d="M337.819 38.1953H1102.18" stroke="#EC008C" stroke-width="1.58879"/>
<path d="M318.34 49.4419H1121.66" stroke="#EC008C" stroke-width="1.58879"/>
<path d="M294.015 63.4854H1145.99" stroke="#EC008C" stroke-width="1.58879"/>
<path d="M263.88 80.8838H1176.12" stroke="#EC008C" stroke-width="1.58879"/>
<path d="M226.822 102.28H1213.18" stroke="#EC008C" stroke-width="1.58879"/>
<path d="M181.562 128.41H1258.44" stroke="#EC008C" stroke-width="1.58879"/>
<path d="M126.64 160.119H1313.36" stroke="#EC008C" stroke-width="1.58879"/>
<path d="M60.3964 198.366H1379.6" stroke="#EC008C" stroke-width="1.58879"/>
<path d="M-19.0518 244.235H1459.05" stroke="#EC008C" stroke-width="1.58879"/>
<path d="M-113.829 298.954H1553.83" stroke="#EC008C" stroke-width="1.58879"/>
<path d="M-226.323 363.902H1666.32" stroke="#EC008C" stroke-width="1.58879"/>
<path d="M-359.215 440.628H1799.21" stroke="#EC008C" stroke-width="1.58879"/>
<path d="M-515.495 530.856H1955.5" stroke="#EC008C" stroke-width="1.58879"/>
<path d="M-698.5 636.514H2138.5" stroke="#EC008C" stroke-width="1.58879"/>
</svg>
