<svg width="85" height="84" viewBox="0 0 85 84" fill="none" xmlns="http://www.w3.org/2000/svg">
<path d="M34.5807 4.79911C38.3594 -0.830779 46.6406 -0.830777 50.4193 4.79911C52.731 8.24335 57.0038 9.79851 60.9885 8.646C67.502 6.76212 73.8458 12.0852 73.1216 18.8268C72.6785 22.9512 74.952 26.889 78.7454 28.5675C84.9459 31.3111 86.3839 39.4666 81.4957 44.1655C78.5052 47.0401 77.7156 51.518 79.5426 55.2421C82.5289 61.3295 78.3882 68.5013 71.6233 68.9588C67.4847 69.2386 64.0014 72.1614 63.0072 76.1885C61.3819 82.7713 53.6001 85.6036 48.1238 81.6057C44.7735 79.1598 40.2265 79.1598 36.8762 81.6057C31.3999 85.6036 23.6181 82.7713 21.9928 76.1885C20.9985 72.1614 17.5153 69.2386 13.3767 68.9588C6.61175 68.5013 2.47111 61.3295 5.45741 55.2421C7.28436 51.518 6.49478 47.0401 3.5043 44.1655C-1.3839 39.4666 0.0541244 31.3111 6.25464 28.5675C10.048 26.889 12.3215 22.9512 11.8784 18.8268C11.1542 12.0852 17.498 6.76212 24.0115 8.646C27.9962 9.79851 32.269 8.24334 34.5807 4.79911Z" fill="#E94B8B"/>
</svg>
