<?xml version="1.0" encoding="UTF-8"?>
<!DOCTYPE svg PUBLIC "-//W3C//DTD SVG 1.1//EN" "http://www.w3.org/Graphics/SVG/1.1/DTD/svg11.dtd">
<svg xmlns="http://www.w3.org/2000/svg" version="1.1" width="300px" height="165px" style="shape-rendering:geometricPrecision; text-rendering:geometricPrecision; image-rendering:optimizeQuality; fill-rule:evenodd; clip-rule:evenodd" xmlns:xlink="http://www.w3.org/1999/xlink">
<g><path style="opacity:0.992" fill="#383737" d="M 206.5,-0.5 C 213.167,-0.5 219.833,-0.5 226.5,-0.5C 267.621,7.6207 291.954,32.2874 299.5,73.5C 299.5,80.5 299.5,87.5 299.5,94.5C 290.929,137.891 264.429,160.891 220,163.5C 217.135,163.316 214.302,162.982 211.5,162.5C 211.5,157.167 211.5,151.833 211.5,146.5C 242.915,148.209 265.415,134.876 279,106.5C 286.107,86.5734 284.107,67.5734 273,49.5C 252.749,17.8034 224.915,8.63669 189.5,22C 163.582,35.9882 151.249,57.8216 152.5,87.5C 146.167,87.5 139.833,87.5 133.5,87.5C 134.099,47.4492 152.766,19.6159 189.5,4C 195.253,2.31369 200.919,0.813694 206.5,-0.5 Z"/></g>
<g><path style="opacity:0.99" fill="#ee4036" d="M 213.5,22.5 C 216.487,22.9978 219.487,23.4978 222.5,24C 216.322,44.9747 223.655,58.9747 244.5,66C 254.658,67.9446 263.491,65.4446 271,58.5C 271.977,61.1024 273.144,63.6024 274.5,66C 258.763,76.944 242.763,77.2773 226.5,67C 212.296,55.0116 207.962,40.1783 213.5,22.5 Z"/></g>
<g><path style="opacity:0.992" fill="#01adee" d="M 200.5,24.5 C 201.822,24.33 202.989,24.6634 204,25.5C 208.824,43.354 202.991,56.5206 186.5,65C 178.5,68.3333 170.5,68.3333 162.5,65C 161.667,62.9189 161.667,60.7522 162.5,58.5C 182.787,63.536 195.12,55.8694 199.5,35.5C 198.83,32.1539 198.163,28.8206 197.5,25.5C 198.791,25.7373 199.791,25.404 200.5,24.5 Z"/></g>
<g><path style="opacity:0.978" fill="#ee4036" d="M 226.5,24.5 C 231.405,23.9297 232.905,25.5964 231,29.5C 229.743,45.0866 236.909,54.0866 252.5,56.5C 257.814,56.2585 262.314,54.2585 266,50.5C 267.046,52.0905 268.213,53.5905 269.5,55C 262.294,61.1658 253.96,63.1658 244.5,61C 227.392,54.2837 221.392,42.117 226.5,24.5 Z"/></g>
<g><path style="opacity:0.979" fill="#08aeef" d="M 191.5,27.5 C 192.5,27.5 193.5,27.5 194.5,27.5C 197.008,44.6565 189.674,54.3232 172.5,56.5C 170.5,56.3333 168.5,56.1667 166.5,56C 164.043,54.8456 164.043,53.5123 166.5,52C 182.759,52.9061 190.426,45.4061 189.5,29.5C 190.243,28.8182 190.909,28.1515 191.5,27.5 Z"/></g>
<g><path style="opacity:0.961" fill="#ee4036" d="M 238.5,28.5 C 240.103,28.3118 241.437,28.8118 242.5,30C 241.574,38.4388 245.407,43.6055 254,45.5C 257.167,43.2538 260,43.4205 262.5,46C 253.527,50.3446 246.027,48.5113 240,40.5C 238.734,36.6049 238.234,32.6049 238.5,28.5 Z"/></g>
<g><path style="opacity:0.995" fill="#373737" d="M 34.5,53.5 C 35.8333,53.5 37.1667,53.5 38.5,53.5C 38.5,56.1667 38.5,58.8333 38.5,61.5C 44.1764,61.3339 49.8431,61.5006 55.5,62C 56.9308,62.4652 58.0975,63.2986 59,64.5C 59.4997,72.1594 59.6664,79.8261 59.5,87.5C 58.1667,87.5 56.8333,87.5 55.5,87.5C 55.6663,80.825 55.4996,74.1583 55,67.5C 49.6667,66.1667 44.3333,66.1667 39,67.5C 38.5004,74.1583 38.3337,80.825 38.5,87.5C 37.1667,87.5 35.8333,87.5 34.5,87.5C 34.5,76.1667 34.5,64.8333 34.5,53.5 Z"/></g>
<g><path style="opacity:0.986" fill="#373737" d="M -0.5,55.5 C 10.1667,55.5 20.8333,55.5 31.5,55.5C 31.5,57.1667 31.5,58.8333 31.5,60.5C 26.8333,60.5 22.1667,60.5 17.5,60.5C 17.5,69.5 17.5,78.5 17.5,87.5C 15.8333,87.5 14.1667,87.5 12.5,87.5C 12.5,78.5 12.5,69.5 12.5,60.5C 8.16667,60.5 3.83333,60.5 -0.5,60.5C -0.5,58.8333 -0.5,57.1667 -0.5,55.5 Z"/></g>
<g><path style="opacity:0.992" fill="#383838" d="M 67.5,61.5 C 73.9522,61.0845 80.2855,61.5845 86.5,63C 87,63.5 87.5,64 88,64.5C 88.499,68.8206 88.6657,73.1539 88.5,77.5C 81.5,77.5 74.5,77.5 67.5,77.5C 67.2865,79.1439 67.6198,80.6439 68.5,82C 75.1583,82.4996 81.825,82.6663 88.5,82.5C 88.5,84.1667 88.5,85.8333 88.5,87.5C 81.1591,87.6663 73.8258,87.4997 66.5,87C 65.6667,86.1667 64.8333,85.3333 64,84.5C 63.3333,77.8333 63.3333,71.1667 64,64.5C 65.1451,63.3636 66.3117,62.3636 67.5,61.5 Z M 68.5,66.5 C 73.5111,66.3341 78.5111,66.5007 83.5,67C 84.4061,68.6995 84.7394,70.5328 84.5,72.5C 78.8333,72.5 73.1667,72.5 67.5,72.5C 67.3253,70.3792 67.6586,68.3792 68.5,66.5 Z"/></g>
<g><path style="opacity:0.989" fill="#ea018b" d="M 275.5,74.5 C 276.468,76.6074 276.802,78.9407 276.5,81.5C 263.744,84.3116 257.077,92.3116 256.5,105.5C 256.55,111.201 258.216,116.368 261.5,121C 260,122.5 258.5,124 257,125.5C 248.228,113.9 247.228,101.567 254,88.5C 259.24,80.74 266.407,76.0733 275.5,74.5 Z"/></g>
<g><path style="opacity:0.976" fill="#eb008b" d="M 275.5,84.5 C 276.613,85.9464 276.78,87.6131 276,89.5C 266.703,95.2234 263.87,103.223 267.5,113.5C 266.5,114.833 265.5,116.167 264.5,117.5C 257.258,102.785 260.925,91.7854 275.5,84.5 Z"/></g>
<g><path style="opacity:1" fill="#535555" d="M 136.5,92.5 C 138.167,92.5 139.833,92.5 141.5,92.5C 141.5,94.1667 141.5,95.8333 141.5,97.5C 139.833,97.5 138.167,97.5 136.5,97.5C 136.5,95.8333 136.5,94.1667 136.5,92.5 Z"/></g>
<g><path style="opacity:0.998" fill="#363636" d="M 118.5,92.5 C 120.167,92.5 121.833,92.5 123.5,92.5C 123.5,95.5 123.5,98.5 123.5,101.5C 126.833,101.5 130.167,101.5 133.5,101.5C 133.5,102.833 133.5,104.167 133.5,105.5C 130.167,105.5 126.833,105.5 123.5,105.5C 123.5,110.833 123.5,116.167 123.5,121.5C 126.833,121.5 130.167,121.5 133.5,121.5C 133.5,123.167 133.5,124.833 133.5,126.5C 129.486,126.666 125.486,126.499 121.5,126C 120.667,125.167 119.833,124.333 119,123.5C 118.5,113.172 118.334,102.839 118.5,92.5 Z"/></g>
<g><path style="opacity:0.963" fill="#373737" d="M -0.5,123.5 C -0.5,115.167 -0.5,106.833 -0.5,98.5C 0.426808,96.4238 2.09347,95.2572 4.5,95C 13.1603,94.5002 21.8269,94.3336 30.5,94.5C 30.5,96.1667 30.5,97.8333 30.5,99.5C 22.16,99.3336 13.8267,99.5003 5.5,100C 4.52011,107.079 4.18678,114.245 4.5,121.5C 13.1667,121.5 21.8333,121.5 30.5,121.5C 30.5,123.167 30.5,124.833 30.5,126.5C 21.1607,126.666 11.8274,126.5 2.5,126C 1.62656,124.955 0.626561,124.122 -0.5,123.5 Z"/></g>
<g><path style="opacity:1" fill="#373837" d="M 238.5,95.5 C 240.167,95.5 241.833,95.5 243.5,95.5C 244.423,99.8492 243.09,103.183 239.5,105.5C 238.513,102.232 238.18,98.8984 238.5,95.5 Z"/></g>
<g><path style="opacity:0.992" fill="#373737" d="M 37.5,101.5 C 43.5,101.5 49.5,101.5 55.5,101.5C 55.5,102.833 55.5,104.167 55.5,105.5C 50.2384,105.195 45.0717,105.529 40,106.5C 39.5004,113.158 39.3337,119.825 39.5,126.5C 38.1667,126.5 36.8333,126.5 35.5,126.5C 35.3336,118.826 35.5003,111.159 36,103.5C 36.7172,102.956 37.2172,102.289 37.5,101.5 Z"/></g>
<g><path style="opacity:0.998" fill="#383838" d="M 60.5,101.5 C 67.5079,101.334 74.5079,101.5 81.5,102C 82.1258,102.75 82.6258,103.584 83,104.5C 83.4988,108.486 83.6655,112.486 83.5,116.5C 76.5,116.5 69.5,116.5 62.5,116.5C 62.5,118.167 62.5,119.833 62.5,121.5C 69.5,121.5 76.5,121.5 83.5,121.5C 83.5,123.167 83.5,124.833 83.5,126.5C 76.1591,126.666 68.8258,126.5 61.5,126C 60.5838,125.626 59.7504,125.126 59,124.5C 57.4185,118.277 57.0852,111.944 58,105.5C 58.6622,104.016 59.4955,102.683 60.5,101.5 Z M 63.5,105.5 C 68.5,105.5 73.5,105.5 78.5,105.5C 78.5,107.5 78.5,109.5 78.5,111.5C 73.1667,111.5 67.8333,111.5 62.5,111.5C 62.3253,109.379 62.6586,107.379 63.5,105.5 Z"/></g>
<g><path style="opacity:1" fill="#383838" d="M 88.5,101.5 C 96.1739,101.334 103.841,101.5 111.5,102C 112,102.5 112.5,103 113,103.5C 113.5,111.159 113.666,118.826 113.5,126.5C 105.777,126.8 98.1101,126.467 90.5,125.5C 89.8076,124.975 89.3076,124.308 89,123.5C 88.5012,119.514 88.3345,115.514 88.5,111.5C 95.5,111.5 102.5,111.5 109.5,111.5C 109.739,109.533 109.406,107.699 108.5,106C 101.842,105.5 95.175,105.334 88.5,105.5C 88.5,104.167 88.5,102.833 88.5,101.5 Z M 92.5,115.5 C 98.1667,115.5 103.833,115.5 109.5,115.5C 109.5,117.5 109.5,119.5 109.5,121.5C 104.156,121.666 98.8229,121.499 93.5,121C 92.5939,119.301 92.2606,117.467 92.5,115.5 Z"/></g>
<g><path style="opacity:1" fill="#535555" d="M 136.5,101.5 C 138.167,101.5 139.833,101.5 141.5,101.5C 141.5,109.833 141.5,118.167 141.5,126.5C 139.833,126.5 138.167,126.5 136.5,126.5C 136.5,118.167 136.5,109.833 136.5,101.5 Z"/></g>
<g><path style="opacity:0.983" fill="#373737" d="M 145.5,102.5 C 147.364,101.207 149.364,101.207 151.5,102.5C 154.921,108.342 158.088,114.342 161,120.5C 164.752,114.664 168.252,108.664 171.5,102.5C 173.421,101.359 175.421,101.192 177.5,102C 173.04,109.753 168.706,117.586 164.5,125.5C 162.5,126.833 160.5,126.833 158.5,125.5C 154.392,117.609 150.059,109.942 145.5,102.5 Z"/></g>
<g><path style="opacity:0.998" fill="#373737" d="M 182.5,101.5 C 189.175,101.334 195.842,101.5 202.5,102C 203.333,102.833 204.167,103.667 205,104.5C 205.499,108.486 205.666,112.486 205.5,116.5C 198.5,116.5 191.5,116.5 184.5,116.5C 184.5,118.167 184.5,119.833 184.5,121.5C 191.5,121.5 198.5,121.5 205.5,121.5C 205.5,123.167 205.5,124.833 205.5,126.5C 197.826,126.666 190.159,126.5 182.5,126C 181.667,125.167 180.833,124.333 180,123.5C 179.333,117.167 179.333,110.833 180,104.5C 180.698,103.309 181.531,102.309 182.5,101.5 Z M 185.5,105.5 C 190.179,105.334 194.845,105.501 199.5,106C 200.406,107.699 200.739,109.533 200.5,111.5C 195.167,111.5 189.833,111.5 184.5,111.5C 184.325,109.379 184.659,107.379 185.5,105.5 Z"/></g>
<g><path style="opacity:0.969" fill="#383838" d="M 213.5,100.5 C 219.593,100.139 225.593,100.639 231.5,102C 232.872,103.242 233.872,104.742 234.5,106.5C 227.569,106.776 220.569,106.776 213.5,106.5C 213.5,107.833 213.5,109.167 213.5,110.5C 219.621,110.09 225.621,110.59 231.5,112C 235.926,117.441 235.259,122.108 229.5,126C 223.833,126.667 218.167,126.667 212.5,126C 209.778,124.728 208.444,122.561 208.5,119.5C 215.137,120.276 221.804,120.609 228.5,120.5C 228.5,119.167 228.5,117.833 228.5,116.5C 223.156,116.666 217.823,116.499 212.5,116C 211.584,115.626 210.75,115.126 210,114.5C 208.517,111.298 208.183,107.964 209,104.5C 209.907,102.391 211.407,101.058 213.5,100.5 Z"/></g>
<g><path style="opacity:1" fill="#373837" d="M 72.5,130.5 C 74.1667,130.5 75.8333,130.5 77.5,130.5C 77.5,132.167 77.5,133.833 77.5,135.5C 75.8333,135.5 74.1667,135.5 72.5,135.5C 72.5,133.833 72.5,132.167 72.5,130.5 Z"/></g>
<g><path style="opacity:0.965" fill="#383838" d="M -0.5,133.5 C -0.5,133.167 -0.5,132.833 -0.5,132.5C 1.60395,132.201 3.60395,132.534 5.5,133.5C 10.3333,141.833 15.1667,150.167 20,158.5C 25.033,150.296 29.8663,141.963 34.5,133.5C 36.5,132.167 38.5,132.167 40.5,133.5C 34.2358,143.697 28.2358,154.03 22.5,164.5C 20.8333,164.5 19.1667,164.5 17.5,164.5C 11.7374,153.967 5.73744,143.634 -0.5,133.5 Z"/></g>
<g><path style="opacity:0.994" fill="#363636" d="M 64.5,164.5 C 58.1667,164.5 51.8333,164.5 45.5,164.5C 44.8783,163.373 44.045,162.373 43,161.5C 42.3333,155.167 42.3333,148.833 43,142.5C 43.3742,141.584 43.8742,140.75 44.5,140C 64.611,133.119 72.4443,139.953 68,160.5C 67.3103,162.35 66.1436,163.684 64.5,164.5 Z M 47.5,143.5 C 52.5111,143.334 57.5111,143.501 62.5,144C 63.4714,149.072 63.8047,154.238 63.5,159.5C 58.1667,159.5 52.8333,159.5 47.5,159.5C 47.5,154.167 47.5,148.833 47.5,143.5 Z"/></g>
<g><path style="opacity:1" fill="#363636" d="M 77.5,164.5 C 75.8333,164.5 74.1667,164.5 72.5,164.5C 72.5,155.833 72.5,147.167 72.5,138.5C 74.1667,138.5 75.8333,138.5 77.5,138.5C 77.5,147.167 77.5,155.833 77.5,164.5 Z"/></g>
<g><path style="opacity:0.996" fill="#343434" d="M 107.5,164.5 C 100.167,164.5 92.8333,164.5 85.5,164.5C 83.8564,163.684 82.6897,162.35 82,160.5C 81.3333,154.5 81.3333,148.5 82,142.5C 83.214,140.951 84.714,139.785 86.5,139C 93.4921,138.5 100.492,138.334 107.5,138.5C 107.5,140.167 107.5,141.833 107.5,143.5C 100.825,143.334 94.1583,143.5 87.5,144C 86.5286,149.072 86.1953,154.238 86.5,159.5C 93.5,159.5 100.5,159.5 107.5,159.5C 107.5,161.167 107.5,162.833 107.5,164.5 Z"/></g>
<g><path style="opacity:0.994" fill="#363636" d="M 136.5,164.5 C 129.167,164.5 121.833,164.5 114.5,164.5C 112.856,163.684 111.69,162.35 111,160.5C 106.556,139.953 114.389,133.119 134.5,140C 135,140.5 135.5,141 136,141.5C 136.499,145.821 136.666,150.154 136.5,154.5C 129.5,154.5 122.5,154.5 115.5,154.5C 115.5,156.167 115.5,157.833 115.5,159.5C 122.5,159.5 129.5,159.5 136.5,159.5C 136.5,161.167 136.5,162.833 136.5,164.5 Z M 116.5,143.5 C 121.5,143.5 126.5,143.5 131.5,143.5C 131.5,145.5 131.5,147.5 131.5,149.5C 126.167,149.5 120.833,149.5 115.5,149.5C 115.325,147.379 115.659,145.379 116.5,143.5 Z"/></g>
</svg>
