<svg width="24" height="24" viewBox="0 0 24 24" fill="none" xmlns="http://www.w3.org/2000/svg">
<path fill-rule="evenodd" clip-rule="evenodd" d="M2 3.8501H22V10.7617H21.25C20.5406 10.7617 19.9866 11.3222 19.9866 12.0011C19.9866 12.6794 20.5401 13.2394 21.25 13.2394H22V20.1501H2V13.2394H2.75C3.45991 13.2394 4.01343 12.6794 4.01343 12.0011C4.01343 11.3609 3.49966 10.8398 2.75 10.8398H2V3.8501ZM3.5 5.3501V9.43647C4.63872 9.73661 5.51343 10.7106 5.51343 12.0011C5.51343 13.2651 4.65887 14.3157 3.5 14.6377V18.6501H20.5V14.6377C19.3411 14.3157 18.4866 13.2651 18.4866 12.0011C18.4866 10.7373 19.3409 9.68577 20.5 9.36351V5.3501H3.5Z" fill="white"/>
<path fill-rule="evenodd" clip-rule="evenodd" d="M11.9991 7.06616L13.4738 9.86136L16.5879 10.4002L14.3853 12.6665L14.8351 15.7947L11.9991 14.4002L9.16297 15.7947L9.61284 12.6665L7.41017 10.4002L10.5243 9.86136L11.9991 7.06616ZM11.9991 10.2806L11.5068 11.2137L10.4673 11.3935L11.2025 12.15L11.0524 13.1942L11.9991 12.7287L12.9457 13.1942L12.7956 12.15L13.5308 11.3935L12.4913 11.2137L11.9991 10.2806Z" fill="white"/>
</svg>
