<svg width="382" height="283" viewBox="0 0 382 283" fill="none" xmlns="http://www.w3.org/2000/svg">
<path fill-rule="evenodd" clip-rule="evenodd" d="M0 21.1387C0 9.54069 9.40202 0.138672 21 0.138672C32.598 0.138672 42 9.54069 42 21.1387V21.6387C42 9.76455 51.6259 0.138672 63.5 0.138672C75.3741 0.138672 85 9.76455 85 21.6387V21.1387C85 9.54069 94.402 0.138672 106 0.138672C117.598 0.138672 127 9.54069 127 21.1387V21.6387C127 9.76455 136.626 0.138672 148.5 0.138672C160.374 0.138672 170 9.76455 170 21.6387V21.1387C170 9.54069 179.402 0.138672 191 0.138672C202.598 0.138672 212 9.54069 212 21.1387V21.6387C212 9.76455 221.626 0.138672 233.5 0.138672C245.374 0.138672 255 9.76455 255 21.6387V21.1387C255 9.54069 264.402 0.138672 276 0.138672C287.598 0.138672 297 9.54069 297 21.1387V21.6387C297 9.76455 306.626 0.138672 318.5 0.138672C330.374 0.138672 340 9.76455 340 21.6387V21.1387C340 9.54069 349.402 0.138672 361 0.138672C372.598 0.138672 382 9.54069 382 21.1387V261.139C382 272.737 372.598 282.139 361 282.139C349.402 282.139 340 272.737 340 261.139V260.639C340 272.513 330.374 282.139 318.5 282.139C306.626 282.139 297 272.513 297 260.639V261.139C297 272.737 287.598 282.139 276 282.139C264.402 282.139 255 272.737 255 261.139V260.639C255 272.513 245.374 282.139 233.5 282.139C221.626 282.139 212 272.513 212 260.639V261.139C212 272.737 202.598 282.139 191 282.139C179.402 282.139 170 272.737 170 261.139V260.639C170 272.513 160.374 282.139 148.5 282.139C136.626 282.139 127 272.513 127 260.639V261.139C127 272.737 117.598 282.139 106 282.139C94.402 282.139 85 272.737 85 261.139V260.639C85 272.513 75.3741 282.139 63.5 282.139C51.6259 282.139 42 272.513 42 260.639V261.139C42 272.737 32.598 282.139 21 282.139C9.40202 282.139 0 272.737 0 261.139V21.1387Z" fill="#380E5D"/>
</svg>
