<svg width="792" height="399" viewBox="0 0 792 399" fill="none" xmlns="http://www.w3.org/2000/svg">
<path fill-rule="evenodd" clip-rule="evenodd" d="M0 44C0 19.6995 19.6995 0 44 0C68.3005 0 88 19.6995 88 44C88 19.6995 107.699 0 132 0C156.301 0 176 19.6995 176 44C176 19.6995 195.699 0 220 0C244.301 0 264 19.6995 264 44C264 19.6995 283.699 0 308 0C332.301 0 352 19.6995 352 44C352 19.6995 371.699 0 396 0C420.301 0 440 19.6995 440 44C440 19.6995 459.699 0 484 0C508.301 0 528 19.6995 528 44C528 19.6995 547.699 0 572 0C596.301 0 616 19.6995 616 44C616 19.6995 635.699 0 660 0C684.301 0 704 19.6995 704 44C704 19.6995 723.699 0 748 0C772.301 0 792 19.6995 792 44V355C792 379.301 772.301 399 748 399C723.699 399 704 379.301 704 355C704 379.301 684.301 399 660 399C635.699 399 616 379.301 616 355C616 379.301 596.301 399 572 399C547.699 399 528 379.301 528 355C528 379.301 508.301 399 484 399C459.699 399 440 379.301 440 355C440 379.301 420.301 399 396 399C371.699 399 352 379.301 352 355C352 379.301 332.301 399 308 399C283.699 399 264 379.301 264 355C264 379.301 244.301 399 220 399C195.699 399 176 379.301 176 355C176 379.301 156.301 399 132 399C107.699 399 88 379.301 88 355C88 379.301 68.3005 399 44 399C19.6995 399 0 379.301 0 355V44Z" fill="#380E5D"/>
</svg>
